<svg data-v-423bf9ae="" xmlns="http://www.w3.org/2000/svg" viewBox="0 0 344 90" class="iconLeft"><!----><!----><!----><g data-v-423bf9ae="" id="90cb1106-0d20-47b4-a849-65f8136662e9" fill="black" transform="matrix(4.735595867300924,0,0,4.735595867300924,108.55600461395598,4.723755652985382)"><path d="M0.74 12.29L0.74 2.69L3.26 2.69L4.45 7.98L4.45 7.98Q4.54 8.37 4.66 9.13L4.66 9.13L4.66 9.13Q4.79 9.90 4.83 10.15L4.83 10.15L4.89 10.15L4.89 10.15Q4.91 9.88 5.02 9.11L5.02 9.11L5.02 9.11Q5.12 8.33 5.21 7.98L5.21 7.98L6.38 2.69L8.82 2.69L8.82 12.29L7.17 12.29L7.17 6.17L7.17 6.17Q7.17 5.75 7.20 5.28L7.20 5.28L7.20 5.28Q7.22 4.82 7.24 4.63L7.24 4.63L7.18 4.63L6.85 6.15L5.50 12.29L3.95 12.29L2.59 6.12L2.25 4.63L2.20 4.63L2.20 4.63Q2.21 4.82 2.24 5.29L2.24 5.29L2.24 5.29Q2.27 5.77 2.27 6.17L2.27 6.17L2.27 12.29L0.74 12.29ZM10.32 3.70L10.32 2.17L12.00 2.17L12.00 3.70L10.32 3.70ZM10.32 12.29L10.32 4.93L12.00 4.93L12.00 12.29L10.32 12.29ZM12.82 12.29L14.95 8.48L12.99 4.93L14.90 4.93L15.99 7.07L16.06 7.07L17.15 4.93L18.96 4.93L16.97 8.44L19.07 12.29L17.18 12.29L15.93 9.86L15.86 9.86L14.62 12.29L12.82 12.29ZM22.65 12.46L22.65 12.46Q21.17 12.46 20.44 11.52L20.44 11.52L20.44 11.52Q19.71 10.58 19.71 8.61L19.71 8.61L19.71 8.61Q19.71 6.64 20.44 5.70L20.44 5.70L20.44 5.70Q21.17 4.76 22.65 4.76L22.65 4.76L22.65 4.76Q24.14 4.76 24.86 5.70L24.86 5.70L24.86 5.70Q25.59 6.64 25.59 8.61L25.59 8.61L25.59 8.61Q25.59 10.58 24.86 11.52L24.86 11.52L24.86 11.52Q24.14 12.46 22.65 12.46L22.65 12.46ZM22.65 11.05L22.65 11.05Q23.28 11.05 23.56 10.51L23.56 10.51L23.56 10.51Q23.84 9.97 23.84 8.88L23.84 8.88L23.84 8.34L23.84 8.34Q23.84 7.25 23.56 6.71L23.56 6.71L23.56 6.71Q23.28 6.17 22.65 6.17L22.65 6.17L22.65 6.17Q22.02 6.17 21.74 6.71L21.74 6.71L21.74 6.71Q21.46 7.25 21.46 8.34L21.46 8.34L21.46 8.88L21.46 8.88Q21.46 9.97 21.74 10.51L21.74 10.51L21.74 10.51Q22.02 11.05 22.65 11.05L22.65 11.05ZM26.91 12.29L26.91 2.17L28.59 2.17L28.59 12.29L26.91 12.29ZM32.86 12.46L32.86 12.46Q31.37 12.46 30.65 11.52L30.65 11.52L30.65 11.52Q29.92 10.58 29.92 8.61L29.92 8.61L29.92 8.61Q29.92 6.64 30.65 5.70L30.65 5.70L30.65 5.70Q31.37 4.76 32.86 4.76L32.86 4.76L32.86 4.76Q34.34 4.76 35.07 5.70L35.07 5.70L35.07 5.70Q35.80 6.64 35.80 8.61L35.80 8.61L35.80 8.61Q35.80 10.58 35.07 11.52L35.07 11.52L35.07 11.52Q34.34 12.46 32.86 12.46L32.86 12.46ZM32.86 11.05L32.86 11.05Q33.49 11.05 33.77 10.51L33.77 10.51L33.77 10.51Q34.05 9.97 34.05 8.88L34.05 8.88L34.05 8.34L34.05 8.34Q34.05 7.25 33.77 6.71L33.77 6.71L33.77 6.71Q33.49 6.17 32.86 6.17L32.86 6.17L32.86 6.17Q32.23 6.17 31.95 6.71L31.95 6.71L31.95 6.71Q31.67 7.25 31.67 8.34L31.67 8.34L31.67 8.88L31.67 8.88Q31.67 9.97 31.95 10.51L31.95 10.51L31.95 10.51Q32.23 11.05 32.86 11.05L32.86 11.05ZM38.21 14.84L38.21 14.84Q37.52 14.84 37.05 14.36L37.05 14.36L37.05 14.36Q36.58 13.89 36.58 13.15L36.58 13.15L36.58 13.15Q36.58 12.17 37.52 11.65L37.52 11.65L37.52 11.65Q36.93 11.28 36.93 10.54L36.93 10.54L36.93 10.54Q36.93 10.08 37.23 9.75L37.23 9.75L37.23 9.75Q37.53 9.42 38.01 9.25L38.01 9.25L38.01 9.25Q37.11 8.60 37.11 7.27L37.11 7.27L37.11 7.27Q37.11 6.10 37.82 5.43L37.82 5.43L37.82 5.43Q38.53 4.76 39.83 4.76L39.83 4.76L39.83 4.76Q40.53 4.76 41.06 4.97L41.06 4.97L41.06 4.97Q41.44 4.70 41.61 4.33L41.61 4.33L41.61 4.33Q41.78 3.96 41.78 3.70L41.78 3.70L43.16 3.70L43.16 3.70Q43.16 5.21 41.97 5.57L41.97 5.57L41.97 5.57Q42.56 6.23 42.56 7.27L42.56 7.27L42.56 7.27Q42.56 8.43 41.85 9.10L41.85 9.10L41.85 9.10Q41.15 9.77 39.83 9.77L39.83 9.77L39.13 9.77L39.13 9.77Q38.91 9.77 38.77 9.90L38.77 9.90L38.77 9.90Q38.63 10.02 38.63 10.22L38.63 10.22L38.63 10.22Q38.63 10.40 38.75 10.53L38.75 10.53L38.75 10.53Q38.88 10.65 39.06 10.65L39.06 10.65L41.61 10.65L41.61 10.65Q42.32 10.65 42.80 11.18L42.80 11.18L42.80 11.18Q43.29 11.70 43.29 12.57L43.29 12.57L43.29 12.57Q43.29 13.24 42.97 13.76L42.97 13.76L42.97 13.76Q42.66 14.28 42.11 14.56L42.11 14.56L42.11 14.56Q41.57 14.84 40.91 14.84L40.91 14.84L38.21 14.84ZM39.83 8.53L39.83 8.53Q40.35 8.53 40.61 8.20L40.61 8.20L40.61 8.20Q40.88 7.87 40.88 7.27L40.88 7.27L40.88 7.27Q40.88 6.66 40.61 6.33L40.61 6.33L40.61 6.33Q40.35 6.01 39.83 6.01L39.83 6.01L39.83 6.01Q39.33 6.01 39.06 6.33L39.06 6.33L39.06 6.33Q38.79 6.66 38.79 7.27L38.79 7.27L38.79 7.27Q38.79 7.87 39.06 8.20L39.06 8.20L39.06 8.20Q39.33 8.53 39.83 8.53L39.83 8.53ZM38.95 13.57L40.84 13.57L40.84 13.57Q41.16 13.57 41.38 13.38L41.38 13.38L41.38 13.38Q41.59 13.19 41.59 12.88L41.59 12.88L41.59 12.88Q41.59 12.57 41.40 12.39L41.40 12.39L41.40 12.39Q41.20 12.21 40.91 12.21L40.91 12.21L38.95 12.21L38.95 12.21Q38.67 12.21 38.47 12.40L38.47 12.40L38.47 12.40Q38.28 12.60 38.28 12.88L38.28 12.88L38.28 12.88Q38.28 13.19 38.46 13.38L38.46 13.38L38.46 13.38Q38.65 13.57 38.95 13.57L38.95 13.57ZM45.08 14.84L45.08 14.84Q44.65 14.84 44.32 14.79L44.32 14.79L44.32 14.79Q43.99 14.74 43.99 14.71L43.99 14.71L43.99 13.43L44.74 13.43L44.74 13.43Q45.12 13.43 45.43 13.15L45.43 13.15L45.43 13.15Q45.74 12.87 45.88 12.29L45.88 12.29L43.43 4.93L45.21 4.93L46.31 8.39L46.31 8.39Q46.42 8.74 46.55 9.41L46.55 9.41L46.55 9.41Q46.68 10.08 46.70 10.30L46.70 10.30L46.76 10.30L46.76 10.30Q46.79 10.09 46.90 9.44L46.90 9.44L46.90 9.44Q47.01 8.79 47.11 8.40L47.11 8.40L48.02 4.93L49.70 4.93L47.68 11.91L47.68 11.91Q47.29 13.27 46.68 14.06L46.68 14.06L46.68 14.06Q46.06 14.84 45.08 14.84L45.08 14.84Z"></path></g><!----><g data-v-423bf9ae="" id="ed25cd55-db67-421b-90a8-7e4bafc7091c" transform="matrix(1.2661255119812824,0,0,1.2661255119812824,-11.698616566480744,-14.038355175358333)" stroke="none" fill="black"><switch><g><path d="M82.062 78.995l-12.934-8.456v-7.827l2.115-2.115a1.5 1.5 0 0 0 0-2.122l-2.115-2.115v-9.172c7.951-1.838 13.595-8.848 13.595-17.129V12.917a1.5 1.5 0 1 0-3 0v17.142c0 7.228-5.185 13.289-12.327 14.411a1.501 1.501 0 0 0-1.268 1.482v11.03c0 .398.158.779.439 1.061l1.494 1.494-1.494 1.494a1.5 1.5 0 0 0-.439 1.061v9.66a1.5 1.5 0 0 0 1.5 1.5h.164l8.413 5.5h-22.18l8.413-5.5h.164a1.5 1.5 0 0 0 1.5-1.5v-9.66c0-.398-.158-.779-.439-1.061l-1.494-1.494 1.494-1.494a1.5 1.5 0 0 0 .439-1.061v-11.03a1.5 1.5 0 0 0-1.268-1.482c-7.143-1.122-12.327-7.183-12.327-14.411V12.917a1.5 1.5 0 1 0-3 0v17.142c0 8.281 5.644 15.291 13.595 17.129v9.172l-2.115 2.115a1.5 1.5 0 0 0 0 2.122l2.115 2.115v7.827L48.17 78.995a1.5 1.5 0 0 0 .822 2.756h32.25a1.502 1.502 0 0 0 .82-2.756z"></path><path d="M65.116 42c6.65 0 12.041-5.391 12.041-12.041V16.833H53.075v13.126c0 6.65 5.391 12.041 12.041 12.041zm-.589-4.02c4.86 0 8.813-3.954 8.813-8.813a.851.851 0 1 1 1.702 0c0 5.797-4.717 10.514-10.515 10.514a.851.851 0 1 1 0-1.701zM43.027 41.167a1.5 1.5 0 0 0-1.5 1.5v20.167c0 5.79-4.71 10.5-10.5 10.5h-7.5c-5.79 0-10.5-4.71-10.5-10.5V42.667a1.5 1.5 0 1 0-3 0v20.167c0 4.67 2.385 8.793 6 11.217V81a1.5 1.5 0 0 0 1.5 1.5h20.5a1.5 1.5 0 0 0 1.5-1.5v-7a1.51 1.51 0 0 0-.125-.598c3.117-2.475 5.125-6.289 5.125-10.569V42.667a1.5 1.5 0 0 0-1.5-1.5zm-6.5 38.333h-17.5v-3.954c1.41.501 2.92.788 4.5.788h7.5c1.96 0 3.818-.429 5.5-1.183V79.5z"></path><path d="M24.479 71h5.596a8.953 8.953 0 0 0 8.953-8.953V47H15.526v15.047A8.954 8.954 0 0 0 24.479 71zm4.545-4.351c3.753 0 5.819-2.066 5.819-5.819a.851.851 0 1 1 1.702 0c0 4.708-2.812 7.52-7.521 7.52a.851.851 0 1 1 0-1.701z"></path></g></switch></g><!----></svg>